<?xml version="1.0" encoding="utf-8"?>
<svg id="master-artboard" viewBox="0 0 250 150" version="1.1" xmlns="http://www.w3.org/2000/svg" x="0px" y="0px" style="enable-background:new 0 0 1400 980;" width="250px" height="150px"><rect id="ee-background" x="0" y="0" width="250" height="150" style="fill: white; fill-opacity: 0; pointer-events: none;"/><defs><style id="ee-google-fonts">@import url(https://fonts.googleapis.com/css?family=Fascinate+Inline:400);</style><radialGradient id="gradient-0" gradientUnits="objectBoundingBox" cx="0.5" cy="0.5" r="0.5">
                <stop offset="0" style="stop-color: #333333"/>
                <stop offset="1" style="stop-color: #000000"/>
              </radialGradient></defs>























































































































<path d="M 43.37395095825195 169.21429443359375 C 43.37395095825195 167.66763305664062 43.510616302490234 166.29095458984375 43.78395080566406 165.08428955078125 C 44.057281494140625 163.8709716796875 44.58061599731445 162.87762451171875 45.35395050048828 162.1042938232422 C 46.127281188964844 161.33096313476562 47.19728469848633 160.740966796875 48.56394958496094 160.33428955078125 C 49.93728256225586 159.92095947265625 51.71728515625 159.71429443359375 53.90394973754883 159.71429443359375 L 83.84394836425781 159.71429443359375 C 85.93728637695312 159.71429443359375 87.63394927978516 159.90762329101562 88.93394470214844 160.29429626464844 C 90.23394775390625 160.68096923828125 91.24728393554688 161.26095581054688 91.97395324707031 162.0343017578125 C 92.70728302001953 162.81430053710938 93.18728637695312 163.79429626464844 93.41395568847656 164.97430419921875 C 93.64061737060547 166.1609649658203 93.75395202636719 167.5742950439453 93.75395202636719 169.21429443359375 L 93.75395202636719 220.34429931640625 C 93.75395202636719 221.8976287841797 93.64061737060547 223.25428771972656 93.41395568847656 224.41429138183594 C 93.18728637695312 225.58096313476562 92.70728302001953 226.5609588623047 91.97395324707031 227.3542938232422 C 91.24728393554688 228.154296875 90.23394775390625 228.7476348876953 88.93394470214844 229.13429260253906 C 87.63394927978516 229.52096557617188 85.93728637695312 229.71429443359375 83.84394836425781 229.71429443359375 L 53.90394973754883 229.71429443359375 C 51.71728515625 229.71429443359375 49.93728256225586 229.50762939453125 48.56394958496094 229.09429931640625 C 47.19728469848633 228.6876220703125 46.127281188964844 228.09762573242188 45.35395050048828 227.3242950439453 C 44.58061599731445 226.55096435546875 44.057281494140625 225.57095336914062 43.78395080566406 224.38429260253906 C 43.510616302490234 223.1976318359375 43.37395095825195 221.80763244628906 43.37395095825195 220.21429443359375 L 43.37395095825195 169.21429443359375 M 45.90394973754883 130.45428466796875 C 45.90394973754883 127.31429290771484 46.50728225708008 124.35429382324219 47.713951110839844 121.57429504394531 C 48.920616149902344 118.79429626464844 50.55061721801758 116.37762451171875 52.60395050048828 114.32429504394531 C 54.65061950683594 112.27095794677734 57.06394958496094 110.64096069335938 59.84394836425781 109.43429565429688 C 62.62395095825195 108.22763061523438 65.5872802734375 107.62429809570312 68.73394775390625 107.62429809570312 C 71.83395385742188 107.62429809570312 74.7606201171875 108.22763061523438 77.51394653320312 109.43429565429688 C 80.2739486694336 110.64096069335938 82.68061828613281 112.27095794677734 84.73394775390625 114.32429504394531 C 86.7806167602539 116.37762451171875 88.40728759765625 118.79429626464844 89.61395263671875 121.57429504394531 C 90.82728576660156 124.35429382324219 91.43394470214844 127.31429290771484 91.43394470214844 130.45428466796875 C 91.43394470214844 133.55429077148438 90.82728576660156 136.48428344726562 89.61395263671875 139.24429321289062 C 88.40728759765625 141.99761962890625 86.7806167602539 144.40097045898438 84.73394775390625 146.45428466796875 C 82.68061828613281 148.50096130371094 80.2739486694336 150.13095092773438 77.51394653320312 151.34429931640625 C 74.7606201171875 152.55096435546875 71.83395385742188 153.154296875 68.73394775390625 153.154296875 C 65.5872802734375 153.154296875 62.62395095825195 152.55096435546875 59.84394836425781 151.34429931640625 C 57.06394958496094 150.13095092773438 54.65061950683594 148.50096130371094 52.60395050048828 146.45428466796875 C 50.55061721801758 144.40097045898438 48.920616149902344 141.99761962890625 47.713951110839844 139.24429321289062 C 46.50728225708008 136.48428344726562 45.90394973754883 133.55429077148438 45.90394973754883 130.45428466796875 M 87.94395446777344 169.83428955078125 C 87.94395446777344 168.82763671875 87.87394714355469 168.02761840820312 87.73394775390625 167.43429565429688 C 87.60061645507812 166.84762573242188 87.32728576660156 166.404296875 86.91395568847656 166.1042938232422 C 86.50727844238281 165.8109588623047 85.96061706542969 165.62762451171875 85.2739486694336 165.55429077148438 C 84.59394836425781 165.4876251220703 83.70728302001953 165.45428466796875 82.61395263671875 165.45428466796875 L 82.61395263671875 223.9742889404297 C 83.70728302001953 223.9742889404297 84.59394836425781 223.9409637451172 85.2739486694336 223.87429809570312 C 85.96061706542969 223.80096435546875 86.50727844238281 223.6176300048828 86.91395568847656 223.3242950439453 C 87.32728576660156 223.0242919921875 87.60061645507812 222.59095764160156 87.73394775390625 222.0242919921875 C 87.87394714355469 221.45762634277344 87.94395446777344 220.6476287841797 87.94395446777344 219.59429931640625 L 87.94395446777344 169.83428955078125 M 80.01394653320312 130.45428466796875 C 80.01394653320312 133.6476287841797 79.38728332519531 136.65762329101562 78.13394927978516 139.48428344726562 C 76.880615234375 142.30429077148438 75.18394470214844 144.76429748535156 73.0439453125 146.86428833007812 C 74.86395263671875 146.404296875 76.53728485107422 145.65097045898438 78.06394958496094 144.6042938232422 C 79.59062194824219 143.5576171875 80.91395568847656 142.317626953125 82.03395080566406 140.88429260253906 C 83.14727783203125 139.44430541992188 84.0239486694336 137.83763122558594 84.66395568847656 136.06430053710938 C 85.303955078125 134.2843017578125 85.62394714355469 132.41429138183594 85.62394714355469 130.45428466796875 C 85.62394714355469 128.49429321289062 85.303955078125 126.62762451171875 84.66395568847656 124.85429382324219 C 84.0239486694336 123.07429504394531 83.14727783203125 121.4676284790039 82.03395080566406 120.03429412841797 C 80.91395568847656 118.59429168701172 79.59062194824219 117.36429595947266 78.06394958496094 116.34429168701172 C 76.53728485107422 115.317626953125 74.86395263671875 114.55429077148438 73.0439453125 114.05429077148438 C 75.18394470214844 116.14762878417969 76.880615234375 118.60762786865234 78.13394927978516 121.43429565429688 C 79.38728332519531 124.2609634399414 80.01394653320312 127.26763153076172 80.01394653320312 130.45428466796875 ZM 144.538818359375 231.08428955078125 C 138.5721435546875 231.08428955078125 133.21881103515625 230.2843017578125 128.47882080078125 228.68429565429688 C 123.73881530761719 227.09095764160156 119.72882080078125 224.7809600830078 116.44882202148438 221.75428771972656 C 113.16215515136719 218.72096252441406 110.65548706054688 214.97096252441406 108.92881774902344 210.50430297851562 C 107.19548797607422 206.03762817382812 106.32881927490234 200.93429565429688 106.32881927490234 195.1942901611328 L 106.32881927490234 127.10429382324219 C 106.32881927490234 125.55762481689453 106.46548461914062 124.18096160888672 106.73881530761719 122.97429656982422 C 107.01215362548828 121.76763153076172 107.53548431396484 120.7742919921875 108.30882263183594 119.99429321289062 C 109.0821533203125 119.22096252441406 110.15215301513672 118.6309585571289 111.51881408691406 118.22429656982422 C 112.89215087890625 117.81095886230469 114.67214965820312 117.60429382324219 116.85881805419922 117.60429382324219 L 146.79881286621094 117.60429382324219 C 148.75881958007812 117.60429382324219 150.37548828125 117.81095886230469 151.64881896972656 118.22429656982422 C 152.92881774902344 118.6309585571289 153.94215393066406 119.23429107666016 154.68881225585938 120.03429412841797 C 155.44215393066406 120.82762908935547 155.96881103515625 121.83096313476562 156.26881408691406 123.04429626464844 C 156.56214904785156 124.25096130371094 156.7088165283203 125.6742935180664 156.7088165283203 127.31429290771484 L 156.7088165283203 159.71429443359375 C 160.72215270996094 160.4409637451172 164.538818359375 161.61428833007812 168.1588134765625 163.23428344726562 C 171.77880859375 164.8542938232422 174.9588165283203 167.06430053710938 177.69882202148438 169.86428833007812 C 180.43215942382812 172.67095947265625 182.59548950195312 176.12429809570312 184.18881225585938 180.2242889404297 C 185.7821502685547 184.3242950439453 186.57882690429688 189.24429321289062 186.57882690429688 194.9842987060547 C 186.57882690429688 199.77096557617188 186.02215576171875 203.97763061523438 184.9088134765625 207.6042938232422 C 183.788818359375 211.2242889404297 182.2388153076172 214.37762451171875 180.25881958007812 217.06430053710938 C 178.27880859375 219.75762939453125 175.95547485351562 221.990966796875 173.288818359375 223.76429748535156 C 170.62216186523438 225.54429626464844 167.72882080078125 226.98095703125 164.60882568359375 228.0742950439453 C 161.48214721679688 229.16763305664062 158.212158203125 229.9409637451172 154.79881286621094 230.394287109375 C 151.37881469726562 230.8542938232422 147.9588165283203 231.08428955078125 144.538818359375 231.08428955078125 M 156.7088165283203 221.37429809570312 C 160.26214599609375 220.92095947265625 163.31549072265625 219.95095825195312 165.8688201904297 218.46429443359375 C 168.42214965820312 216.9842987060547 170.5054931640625 215.08428955078125 172.1188201904297 212.76429748535156 C 173.7388153076172 210.4376220703125 174.93548583984375 207.77096557617188 175.7088165283203 204.76429748535156 C 176.4888153076172 201.75762939453125 176.87881469726562 198.49761962890625 176.87881469726562 194.9842987060547 C 176.87881469726562 191.5242919921875 176.4888153076172 188.2676239013672 175.7088165283203 185.21429443359375 C 174.93548583984375 182.1609649658203 173.72882080078125 179.47096252441406 172.0888214111328 177.144287109375 C 170.44882202148438 174.8242950439453 168.365478515625 172.9109649658203 165.8388214111328 171.404296875 C 163.30548095703125 169.8976287841797 160.26214599609375 168.91763305664062 156.7088165283203 168.46429443359375 L 156.7088165283203 221.37429809570312 M 150.89881896972656 127.85429382324219 C 150.89881896972656 126.85429382324219 150.82882690429688 126.05762481689453 150.68881225585938 125.46429443359375 C 150.55548095703125 124.87096405029297 150.2821502685547 124.42762756347656 149.8688201904297 124.13429260253906 C 149.462158203125 123.83429718017578 148.9154815673828 123.65096282958984 148.22882080078125 123.58429718017578 C 147.54881286621094 123.51763153076172 146.6621551513672 123.48429107666016 145.56881713867188 123.48429107666016 L 145.56881713867188 222.74429321289062 C 145.7954864501953 222.74429321289062 146.13548278808594 222.73095703125 146.5888214111328 222.7042999267578 C 147.04881286621094 222.68429565429688 147.538818359375 222.6609649658203 148.05882263183594 222.63429260253906 C 148.58547973632812 222.61428833007812 149.09881591796875 222.58096313476562 149.59881591796875 222.5343017578125 C 150.09881591796875 222.4876251220703 150.5321502685547 222.42095947265625 150.89881896972656 222.33428955078125 L 150.89881896972656 127.85429382324219 ZM 225.05894470214844 229.71429443359375 C 222.59893798828125 229.71429443359375 220.12893676757812 229.55429077148438 217.64894104003906 229.2342987060547 C 215.1622772216797 228.91429138183594 212.7922821044922 228.4009552001953 210.5389404296875 227.6942901611328 C 208.27894592285156 226.9876251220703 206.1689453125 226.06430053710938 204.2089385986328 224.92430114746094 C 202.2489471435547 223.79095458984375 200.55227661132812 222.38096618652344 199.1189422607422 220.6942901611328 C 197.68560791015625 219.00762939453125 196.55894470214844 217.0242919921875 195.7389373779297 214.74429321289062 C 194.9189453125 212.46429443359375 194.50894165039062 209.84429931640625 194.50894165039062 206.88429260253906 C 194.50894165039062 202.91763305664062 195.25894165039062 199.52096557617188 196.75894165039062 196.6942901611328 C 198.26560974121094 193.8676300048828 200.2822723388672 191.52096557617188 202.80894470214844 189.654296875 C 205.34228515625 187.78762817382812 208.2489471435547 186.3509521484375 211.52894592285156 185.34429931640625 C 214.80894470214844 184.34429931640625 218.2022705078125 183.70762634277344 221.7089385986328 183.43429565429688 L 221.7089385986328 178.71429443359375 C 221.7089385986328 176.9409637451172 221.48226928710938 175.5309600830078 221.02894592285156 174.4842987060547 C 220.5756072998047 173.43096923828125 219.99560546875 172.644287109375 219.2889404296875 172.12429809570312 C 218.582275390625 171.59762573242188 217.80560302734375 171.25430297851562 216.9589385986328 171.09429931640625 C 216.1189422607422 170.93429565429688 215.31227111816406 170.8542938232422 214.5389404296875 170.8542938232422 C 213.6256103515625 170.8542938232422 212.65560913085938 170.990966796875 211.62893676757812 171.26429748535156 C 210.60227966308594 171.53762817382812 209.61227416992188 171.8676300048828 208.658935546875 172.25430297851562 C 207.69894409179688 172.64096069335938 206.78561401367188 173.06430053710938 205.9189453125 173.5242919921875 C 205.05227661132812 173.97763061523438 204.3256072998047 174.38763427734375 203.7389373779297 174.75430297851562 C 203.46560668945312 174.93429565429688 203.2122802734375 175.09429931640625 202.97894287109375 175.2342987060547 C 202.7522735595703 175.3676300048828 202.52560424804688 175.43429565429688 202.2989501953125 175.43429565429688 C 201.88560485839844 175.43429565429688 201.4989471435547 175.13763427734375 201.13894653320312 174.54429626464844 L 198.80894470214844 170.8542938232422 C 198.582275390625 170.5343017578125 198.4689483642578 170.1942901611328 198.4689483642578 169.83428955078125 C 198.4689483642578 169.46762084960938 198.6189422607422 169.1476287841797 198.9189453125 168.87429809570312 C 199.2122802734375 168.6009521484375 199.49560546875 168.37429809570312 199.76895141601562 168.1942901611328 C 201.27560424804688 167.14096069335938 203.18894958496094 166.067626953125 205.50894165039062 164.97430419921875 C 207.8356170654297 163.88095092773438 210.44561767578125 162.90097045898438 213.3389434814453 162.0343017578125 C 216.23226928710938 161.17428588867188 219.36561584472656 160.47096252441406 222.73895263671875 159.92428588867188 C 226.11227416992188 159.3709716796875 229.59893798828125 159.09429931640625 233.19894409179688 159.09429931640625 C 236.6189422607422 159.09429931640625 239.9556121826172 159.21096801757812 243.2089385986328 159.44430541992188 C 246.4689483642578 159.67095947265625 249.5456085205078 160.16094970703125 252.43894958496094 160.91429138183594 C 255.332275390625 161.66094970703125 257.9756164550781 162.73095703125 260.36895751953125 164.12429809570312 C 262.76226806640625 165.51095581054688 264.8356018066406 167.34429931640625 266.58892822265625 169.62429809570312 C 268.34228515625 171.904296875 269.6989440917969 174.70762634277344 270.658935546875 178.0343017578125 C 271.6122741699219 181.3609619140625 272.08892822265625 185.34762573242188 272.08892822265625 189.99429321289062 L 272.08892822265625 220.4842987060547 C 272.08892822265625 221.990966796875 271.9522705078125 223.3242950439453 271.678955078125 224.4842987060547 C 271.4056091308594 225.644287109375 270.88226318359375 226.61428833007812 270.10894775390625 227.394287109375 C 269.3356018066406 228.16763305664062 268.265625 228.7476348876953 266.89892578125 229.13429260253906 C 265.53228759765625 229.52096557617188 263.755615234375 229.71429443359375 261.5689392089844 229.71429443359375 L 225.05894470214844 229.71429443359375 M 221.7089385986328 192.11428833007812 C 218.42893981933594 192.11428833007812 215.67227172851562 192.5242919921875 213.43894958496094 193.34429931640625 C 211.2056121826172 194.16429138183594 209.40560913085938 195.25762939453125 208.0389404296875 196.62429809570312 C 206.67227172851562 197.990966796875 205.69227600097656 199.57762145996094 205.09893798828125 201.38429260253906 C 204.505615234375 203.18429565429688 204.2089385986328 205.04095458984375 204.2089385986328 206.9542999267578 C 204.2089385986328 208.8676300048828 204.505615234375 210.67762756347656 205.09893798828125 212.38429260253906 C 205.69227600097656 214.09095764160156 206.67227172851562 215.58428955078125 208.0389404296875 216.86428833007812 C 209.40560913085938 218.13763427734375 211.2056121826172 219.14096069335938 213.43894958496094 219.87429809570312 C 215.67227172851562 220.60096740722656 218.42893981933594 220.96429443359375 221.7089385986328 220.96429443359375 L 221.7089385986328 192.11428833007812 M 260.9489440917969 223.9742889404297 C 262.0422668457031 223.9742889404297 262.9322814941406 223.9409637451172 263.61895751953125 223.87429809570312 C 264.2989501953125 223.80096435546875 264.8456115722656 223.6176300048828 265.2589416503906 223.3242950439453 C 265.6656188964844 223.0242919921875 265.9389343261719 222.59095764160156 266.0789489746094 222.0242919921875 C 266.2122802734375 221.45762634277344 266.2789306640625 220.6476287841797 266.2789306640625 219.59429931640625 L 266.2789306640625 188.49429321289062 C 266.2789306640625 184.80096435546875 265.89227294921875 181.6909637451172 265.11895751953125 179.16429138183594 C 264.3456115722656 176.63096618652344 263.3789367675781 174.55763244628906 262.21893310546875 172.9442901611328 C 261.0522766113281 171.3242950439453 259.7856140136719 170.09429931640625 258.4189453125 169.25430297851562 C 257.0522766113281 168.40762329101562 255.77560424804688 167.7809600830078 254.5889434814453 167.37429809570312 C 255.1356201171875 167.96096801757812 255.78561401367188 168.80429077148438 256.5389404296875 169.904296875 C 257.2922668457031 170.99761962890625 257.98895263671875 172.38763427734375 258.6289367675781 174.0742950439453 C 259.26226806640625 175.75430297851562 259.8089599609375 177.77096557617188 260.2689514160156 180.12429809570312 C 260.7222900390625 182.47096252441406 260.9489440917969 185.17095947265625 260.9489440917969 188.2242889404297 L 260.9489440917969 223.9742889404297 Z" transform="matrix(1, 0, 0, 1, -33.048641204833984, -94.63917541503906)" style="fill: rgb(51, 51, 51); white-space: pre; color: rgb(51, 51, 51); stroke: rgb(1, 1, 5); stroke-width: 1; fill-opacity: 1;"/></svg>